<?xml version="1.0" encoding="UTF-8" standalone="no"?><!-- Generator: Gravit.io --><svg xmlns="http://www.w3.org/2000/svg" xmlns:xlink="http://www.w3.org/1999/xlink" style="isolation:isolate" viewBox="0 0 18 12" width="18pt" height="12pt"><defs><clipPath id="_clipPath_ZHOTFHkm1v544Yex9f2q6XKxXw10i21U"><rect width="18" height="12"/></clipPath></defs><g clip-path="url(#_clipPath_ZHOTFHkm1v544Yex9f2q6XKxXw10i21U)"><g><path d=" M 6 1 M 12 0 C 15.312 0 18 2.688 18 6 C 18 9.312 15.312 12 12 12 C 8.688 12 6 9.312 6 6 C 6 2.688 8.688 0 12 0 Z  M 11 8.5 L 8.5 6 L 9.205 5.295 L 11 7.085 L 14.795 3.29 L 15.5 4 L 11 8.5 Z " fill="rgb(51,51,51)"/><path d=" M 6 1 M 12 0 C 15.312 0 18 2.688 18 6 C 18 9.312 15.312 12 12 12 C 8.688 12 6 9.312 6 6 C 6 2.688 8.688 0 12 0 Z  M 11 8.5 L 8.5 6 L 9.205 5.295 L 11 7.085 L 14.795 3.29 L 15.5 4 L 11 8.5 Z " fill="rgb(51,51,51)"/><path d=" M 7.838 0.234 C 7.51 0.469 7.283 0.813 7.001 1.1 C 6.65 1.428 5.01 3.24 5.01 6 C 5.01 8.76 6.65 10.595 7.001 10.9 C 7.283 11.187 7.589 11.451 7.917 11.687 C 7.315 11.89 6.67 12 6 12 C 2.688 12 0 9.312 0 6 C 0 2.688 2.608 -0.08 5.92 -0.08 C 6.591 -0.08 7.235 0.03 7.838 0.234 Z  M 5.073 7.012 C 5.13 7.407 5.22 7.79 5.34 8.16 L 5 8.5 L 2.5 6 L 3.205 5.295 L 5 7.085 L 5.073 7.012 Z  M 11 8.5 L 8.5 6 L 9.205 5.295 L 11 7.085 L 14.795 3.29 L 15.5 4 L 11 8.5 Z " fill="rgb(51,51,51)"/><path d=" M 5.073 7.012 C 5.13 7.407 5.22 7.79 5.34 8.16 L 5 8.5 L 2.5 6 L 3.205 5.295 L 5 7.085 L 5.073 7.012 Z  M 11 8.5 L 8.5 6 L 9.205 5.295 L 11 7.085 L 14.795 3.29 L 15.5 4 L 11 8.5 Z " fill="rgb(255,255,255)"/></g></g></svg>