<?xml version="1.0" encoding="UTF-8" standalone="no"?><!-- Generator: Gravit.io --><svg xmlns="http://www.w3.org/2000/svg" xmlns:xlink="http://www.w3.org/1999/xlink" style="isolation:isolate" viewBox="0 0 18 12" width="18pt" height="12pt"><defs><clipPath id="_clipPath_u3u3YeGYCOHh6ww3OxsVius6EEbaymY3"><rect width="18" height="12"/></clipPath></defs><g clip-path="url(#_clipPath_u3u3YeGYCOHh6ww3OxsVius6EEbaymY3)"><g><path d=" M 7.917 0.313 C 7.589 0.549 7.283 0.813 7.001 1.1 C 6.732 1.363 4.992 3.24 4.992 6 C 4.992 8.76 6.69 10.633 7.001 10.9 C 7.283 11.187 7.589 11.451 7.917 11.687 C 7.315 11.89 6.67 12 6 12 C 2.688 12 0 9.312 0 6 C 0 2.688 2.688 0 6 0 C 6.67 0 7.315 0.11 7.917 0.313 Z  M 12 0 C 15.312 0 18 2.688 18 6 C 18 9.312 15.312 12 12 12 C 8.688 12 6 9.312 6 6 C 6 2.688 8.688 0 12 0 Z " fill="rgb(238,238,238)"/><path d=" M 5.073 7.012 C 5.13 7.407 5.22 7.79 5.34 8.16 L 5 8.5 L 2.5 6 L 3.205 5.295 L 5 7.085 L 5.073 7.012 Z  M 11 8.5 L 8.5 6 L 9.205 5.295 L 11 7.085 L 14.795 3.29 L 15.5 4 L 11 8.5 Z " fill="rgb(51,51,51)"/></g></g></svg>